HIERARCHY
ROOT Hips
{
	OFFSET	0.000000	0.000000	0.000000
	CHANNELS 6 Xposition Yposition Zposition Zrotation Xrotation Yrotation
	JOINT LeftHip
	{
		OFFSET	7.620000	0.000000	0.000000
		CHANNELS 3 Zrotation Xrotation Yrotation
		JOINT LeftKnee
		{
			OFFSET	0.000000	-44.449999	0.000000
			CHANNELS 3 Zrotation Xrotation Yrotation
			JOINT LeftAnkle
			{
				OFFSET	0.000000	-39.369999	0.000000
				CHANNELS 3 Zrotation Xrotation Yrotation
				JOINT LeftAnkleEnd
				{
					OFFSET	0.000000	-8.890000	-3.810000
					CHANNELS 3 Zrotation Xrotation Yrotation
					End Site
					{
						OFFSET	0.000000	0.000000	15.240000
					}
				}
			}
		}
	}
	JOINT RightHip
	{
		OFFSET	-7.620000	0.000000	0.000000
		CHANNELS 3 Zrotation Xrotation Yrotation
		JOINT RightKnee
		{
			OFFSET	0.000000	-44.449999	0.000000
			CHANNELS 3 Zrotation Xrotation Yrotation
			JOINT RightAnkle
			{
				OFFSET	0.000000	-39.369999	0.000000
				CHANNELS 3 Zrotation Xrotation Yrotation
				JOINT RightAnkleEnd
				{
					OFFSET	0.000000	-8.890000	-3.810000
					CHANNELS 3 Zrotation Xrotation Yrotation
					End Site
					{
						OFFSET	0.000000	0.000000	15.240000
					}
				}
			}
		}
	}
	JOINT Chest
	{
		OFFSET	0.000000	7.620000	-2.540000
		CHANNELS 3 Zrotation Xrotation Yrotation
		JOINT Chest2
		{
			OFFSET	0.000000	7.620000	0.000000
			CHANNELS 3 Zrotation Xrotation Yrotation
			JOINT LeftCollar
			{
				OFFSET	7.620000	33.020000	2.540000
				CHANNELS 3 Zrotation Xrotation Yrotation
				JOINT LeftShoulder
				{
					OFFSET	12.700000	0.000000	0.000000
					CHANNELS 3 Zrotation Xrotation Yrotation
					JOINT LeftElbow
					{
						OFFSET	0.000000	-30.480000	0.000000
						CHANNELS 3 Zrotation Xrotation Yrotation
						JOINT LeftWrist
						{
							OFFSET	0.000000	-24.130000	0.000000
							CHANNELS 3 Zrotation Xrotation Yrotation
							End Site
							{
								OFFSET	0.000000	-17.780000	0.000000
							}
						}
					}
				}
			}
			JOINT RightCollar
			{
				OFFSET	-7.620000	33.020000	2.540000
				CHANNELS 3 Zrotation Xrotation Yrotation
				JOINT RightShoulder
				{
					OFFSET	-12.700000	0.000000	0.000000
					CHANNELS 3 Zrotation Xrotation Yrotation
					JOINT RightElbow
					{
						OFFSET	0.000000	-30.480000	0.000000
						CHANNELS 3 Zrotation Xrotation Yrotation
						JOINT RightWrist
						{
							OFFSET	0.000000	-24.130000	0.000000
							CHANNELS 3 Zrotation Xrotation Yrotation
							End Site
							{
								OFFSET	0.000000	-17.780000	0.000000
							}
						}
					}
				}
			}
			JOINT Neck
			{
				OFFSET	0.000000	38.099999	2.540000
				CHANNELS 3 Zrotation Xrotation Yrotation
				JOINT Head
				{
					OFFSET	0.000000	16.510000	0.000000
					CHANNELS 3 Zrotation Xrotation Yrotation
					End Site
					{
						OFFSET	0.000000	10.160000	0.000000
					}
				}
			}
		}
	}
}
MOTION
Frames:     8
Frame Time: 0.016667
1.524644	95.397761	-0.507247	-1.829527	-4.400301	-0.381611	2.832229	5.801149	2.553770	-3.939975	-3.766201	-3.474078	2.425202	2.584131	0.862019	0.	0.	0.	-0.463647	5.886320	-1.013938	2.001732	-0.162876	3.639678	-1.317750	-1.286104	-0.673492	0.	0.	0.	0.000000	-0.000000	-0.000001	4.402057	-0.186171	0.790177	-0.000000	-0.000000	0.000001	-3.044958	2.073855	-11.594578	-4.209171	-0.956767	15.542125	4.620726	8.767239	2.816781	-0.000000	-0.000000	0.000001	1.539841	2.825439	5.415902	-3.038276	-2.695683	-17.044260	2.609710	1.766516	-0.656470	1.121967	2.219361	-1.735443	1.121968	2.219362	-1.735443	
1.524644	95.397761	-0.507247	-1.829527	-4.400301	-0.381611	2.832229	5.801149	2.553770	-3.939975	-3.766201	-3.474078	2.425202	2.584131	0.862019	0.	0.	0.	-0.457973	5.955936	-0.952109	1.974982	-0.155333	3.605519	-1.301316	-1.366098	-0.701196	0.	0.	0.	0.000000	-0.000000	-0.000001	4.478723	-0.156879	0.863166	-0.000000	-0.000001	0.000004	-3.034865	2.054907	-11.710495	-4.459375	-0.830590	15.608989	4.875600	8.477571	2.801267	-0.000000	-0.000001	0.000004	1.659198	2.753919	5.354541	-3.173039	-2.685500	-16.975225	2.591541	1.745618	-0.651706	0.994213	2.177388	-1.744496	0.994214	2.177389	-1.744499	
1.531642	95.392907	-0.455451	-1.829527	-4.400301	-0.381611	2.893268	5.869187	2.613585	-4.087531	-3.824402	-3.466879	2.507924	2.583092	0.778887	0.	0.	0.	-0.472793	6.027548	-0.889615	1.963410	-0.153872	3.527220	-1.470395	-1.454794	-0.724041	0.	0.	0.	0.000000	-0.000000	-0.000001	4.629217	-0.097192	0.858014	-0.000000	0.000000	-0.000003	-3.241454	2.104472	-11.923323	-4.476139	-0.775092	15.764439	5.042766	8.200990	2.872262	-0.000000	0.000000	-0.000003	1.625498	2.669958	5.420823	-3.236759	-2.694288	-16.951908	2.573301	1.724784	-0.647000	0.805579	2.151660	-1.742254	0.805580	2.151661	-1.742253	
1.536651	95.390310	-0.353990	-1.829527	-4.400301	-0.381611	2.886478	6.000001	2.699244	-4.093241	-3.948997	-3.561182	2.507924	2.583092	0.778887	0.	0.	0.	-0.665969	6.096365	-0.810241	2.156318	-0.221908	3.470656	-1.470395	-1.454794	-0.724041	0.	0.	0.	0.000000	-0.000000	-0.000001	4.703200	-0.066964	0.779875	-0.000000	-0.000000	-0.000006	-3.288924	2.183270	-12.103689	-4.553674	-0.842833	16.093493	5.259824	8.193152	2.844685	-0.000000	-0.000000	-0.000006	1.635851	2.710081	5.517717	-3.278201	-2.801277	-16.891127	2.509591	1.753153	-0.731789	0.679111	2.172901	-1.728260	0.679112	2.172901	-1.728257	
1.635970	95.393905	-0.422713	-1.829527	-4.400301	-0.381611	2.757954	5.911017	2.707608	-3.960619	-3.866694	-3.550377	2.507924	2.583092	0.778887	0.	0.	0.	-0.870313	6.026208	-0.854687	2.407975	-0.300555	3.527844	-1.509849	-1.297974	-0.713856	0.	0.	0.	0.000000	-0.000000	-0.000001	4.703200	-0.066964	0.779875	-0.000000	-0.000000	-0.000006	-3.298266	2.229691	-12.444087	-4.698999	-0.847590	16.460310	5.576401	8.157900	2.784464	-0.000000	-0.000000	-0.000006	1.709246	2.751279	5.498542	-3.354454	-2.836097	-16.877422	2.509591	1.753153	-0.731789	0.624755	2.231911	-1.723264	0.624756	2.231911	-1.723261	
1.613231	95.393798	-0.530394	-1.788088	-4.320133	-0.425375	2.671466	5.700300	2.764938	-3.834370	-3.738754	-3.621544	2.425202	2.584131	0.862019	0.	0.	0.	-1.113930	5.745759	-0.780209	2.574924	-0.281542	3.582581	-1.472780	-1.115783	-0.781199	0.	0.	0.	0.000000	-0.000000	-0.000001	4.662544	-0.143323	0.833202	-0.000000	-0.000000	-0.000006	-3.267601	2.341883	-12.701078	-4.872755	-0.836375	16.735620	5.926369	7.997870	2.778819	-0.000000	-0.000000	-0.000006	1.784128	2.736570	5.450369	-3.425246	-2.816996	-16.831570	2.509591	1.753153	-0.731789	0.570379	2.290937	-1.718213	0.570379	2.290936	-1.718210	
1.701452	95.394980	-0.705016	-1.788088	-4.320133	-0.425375	2.563605	5.546554	2.839046	-3.733652	-3.667324	-3.838453	2.423151	2.672199	1.021105	0.	0.	0.	-1.311787	5.546465	-0.752326	2.719984	-0.183522	3.662675	-1.419042	-1.013363	-0.876688	0.	0.	0.	0.000000	-0.000000	-0.000001	4.662544	-0.143323	0.833202	-0.000000	-0.000000	-0.000006	-3.274577	2.428410	-12.766608	-4.928457	-0.864238	16.899836	6.097806	8.035483	2.684623	-0.000000	-0.000000	-0.000006	1.890162	2.572632	5.415076	-3.513221	-2.645918	-16.790714	2.509591	1.753153	-0.731789	0.542117	2.381536	-1.738034	0.542118	2.381536	-1.738031	
1.694725	95.398042	-0.875051	-1.788088	-4.320133	-0.425375	2.503336	5.395139	2.820716	-3.589555	-3.601340	-4.046555	2.331845	2.757493	1.264444	0.	0.	0.	-1.369681	5.281392	-0.732511	2.825301	-0.080024	3.784698	-1.461995	-0.845389	-1.021629	0.	0.	0.	0.000000	-0.000000	-0.000001	4.588589	-0.173620	0.911243	-0.000000	0.000000	-0.000003	-3.203674	2.548425	-12.908639	-5.065824	-0.881759	16.966072	6.445376	8.072772	2.669499	-0.000000	0.000000	-0.000003	1.999269	2.449772	5.348680	-3.435343	-2.459249	-16.666903	2.456646	1.818346	-0.782432	0.531580	2.517337	-1.823594	0.531580	2.517336	-1.823592	
